# xmcd CD database file
#
# Track frame offsets:
#	150
#	25358
#	48923
#	51157
#	69789
#	92217
#	106405
#	125389
#	142136
#	162011
#	183285
#	207283
#	227102
#	249256
#	262205
#	278405
#	299605
#	318322
#	331903
#
# Disc length: 4612 seconds
#
# Revision: 1
# Processed by: cddbd v1.5.1PL0 Copyright (c) Steve Scherf et al.
# Submitted via: CDex 1.51
#
DISCID=15120213
DTITLE=Eric Bibb and Keb' Mo' - Strictly Acoustic Piazza Blues CD2
DYEAR=2000
DGENRE=Blues
TTITLE0=Tell Ol' Bill
TTITLE1=I'm Going Down Slow
TTITLE2=Intro
TTITLE3=Saucer And Cup
TTITLE4=Needed Time
TTITLE5=You Gotta Walk That Lonesome Valley By Yourself
TTITLE6=Keep My Cool
TTITLE7=Singin' In My Heart
TTITLE8=You Got The Good Stuff Mama
TTITLE9=The Way You Love Me Baby
TTITLE10=In My Father's House
TTITLE11=I Heard The Angels Singin'
TTITLE12=Don't Let Nobody Drag Your Spirit Down
TTITLE13=I'll Dry Your Tears
TTITLE14=You Can Love Yourself
TTITLE15=Unknown
TTITLE16=Angelina
TTITLE17=More Than One Way Home
TTITLE18=Unknown
EXTD=YEAR: 2000
EXTT0=
EXTT1=
EXTT2=
EXTT3=
EXTT4=
EXTT5=
EXTT6=
EXTT7=
EXTT8=
EXTT9=
EXTT10=
EXTT11=
EXTT12=
EXTT13=
EXTT14=
EXTT15=
EXTT16=
EXTT17=
EXTT18=
PLAYORDER=
